<svg id="brand_full_copy_2" data-name="brand full copy 2" xmlns="http://www.w3.org/2000/svg" xmlns:xlink="http://www.w3.org/1999/xlink" width="634.339" height="125.781" viewBox="0 0 634.339 125.781">
  <defs>
    <style>
      .cls-1 {
        fill: #4a314f;
      }

      .cls-1, .cls-2, .cls-3, .cls-4 {
        fill-rule: evenodd;
      }

      .cls-2, .cls-3, .cls-4 {
        fill: #eb2e6b;
      }

      .cls-3 {
        filter: url(#filter);
      }

      .cls-4 {
        filter: url(#filter-2);
      }
    </style>
    <filter id="filter" x="867" y="416" width="57" height="102" filterUnits="userSpaceOnUse">
      <feOffset result="offset" dx="-4" in="SourceAlpha"/>
      <feGaussianBlur result="blur" stdDeviation="2.828"/>
      <feFlood result="flood" flood-opacity="0.45"/>
      <feComposite result="composite" operator="in" in2="blur"/>
      <feBlend result="blend" in="SourceGraphic"/>
    </filter>
    <filter id="filter-2" x="985" y="416" width="56" height="102" filterUnits="userSpaceOnUse">
      <feOffset result="offset" dx="4" in="SourceAlpha"/>
      <feGaussianBlur result="blur" stdDeviation="2.828"/>
      <feFlood result="flood" flood-opacity="0.45"/>
      <feComposite result="composite" operator="in" in2="blur"/>
      <feBlend result="blend" in="SourceGraphic"/>
    </filter>
  </defs>
  <path id="trust_copy" data-name="trust copy" class="cls-1" d="M1021.12,424.335a3.337,3.337,0,0,0-3.46,2.376l-29.5,79.985c-0.792,2.079.2,3.465,2.375,3.465h4.851a3.345,3.345,0,0,0,3.465-2.376l29.5-79.985c0.79-2.079-.2-3.465-2.37-3.465h-4.86Zm-1.34,9.6a2.666,2.666,0,0,1,2.97-2.969h19.19a2.625,2.625,0,0,1,2.97,2.969v11.088a2.665,2.665,0,0,1-2.97,2.969h-13.86a2.666,2.666,0,0,0-2.97,2.97v46.328a2.666,2.666,0,0,1-2.97,2.97h-11.09a2.71,2.71,0,0,1-2.97-2.97V450.964c0-1.98,9.51-2.97,7.53-2.97m77.91,27.421a1.052,1.052,0,0,1,.29-1.287c5.25-3.762,7.53-10.2,7.53-19.4,0-16.235-7.13-23.758-24.75-23.758h-21.68a2.966,2.966,0,0,0-3.07,3.068v63.157a2.966,2.966,0,0,0,3.07,3.069H1066a2.966,2.966,0,0,0,3.07-3.069V481.552a2.957,2.957,0,0,1,3.06-3.068h3.96a1.021,1.021,0,0,1,.8.5l10.29,19.9a2.422,2.422,0,0,0,2.28,1.386h11.28a3.508,3.508,0,0,0,3.27-5.346Zm-16.34-27.421c4.75,0,7.13.594,7.13,6.732s-2.38,6.731-7.13,6.731h-5.05a2.958,2.958,0,0,1-3.06-3.069v-7.325a2.958,2.958,0,0,1,3.06-3.069h5.05Zm36.73-17.026a2.666,2.666,0,0,0-2.97,2.969v44.052c0,6.533,1.39,24.055,24.85,24.055s24.85-17.522,24.85-24.055V433.937a2.625,2.625,0,0,0-2.97-2.969h-11.09a2.666,2.666,0,0,0-2.97,2.969v38.805c0,7.622-.49,12.275-7.82,12.275s-7.82-4.653-7.82-12.275V433.937a2.625,2.625,0,0,0-2.97-2.969h-11.09Zm102.86,22.075a2.9,2.9,0,0,0,2.57-3.267c-0.59-7.127-5.34-20.392-25.73-20.392-22.18,0-23.96,17.521-23.86,20.491,0,22.768,29.79,20.887,31.68,29.3,0.59,2.672-2.97,5.543-7.82,5.543-4.66,0-8.32-2.772-8.72-7.523-0.19-2.079-1.28-2.97-3.26-2.574l-11.19,2.475a2.9,2.9,0,0,0-2.57,3.266c0.49,7.722,4.95,21.383,25.74,21.383,23.46,0,26.82-17.522,26.82-20.492,0-22.768-31.28-22.57-32.67-30.291-0.39-2.277,1.98-4.554,5.85-4.554,4.65,0,7.91,2.574,8.61,6.633,0.29,1.98,1.28,2.871,3.26,2.475Zm26.63-2.079a2.625,2.625,0,0,0-2.97-2.97h-13.86a2.71,2.71,0,0,1-2.97-2.969V433.937a2.666,2.666,0,0,1,2.97-2.969h50.69a2.625,2.625,0,0,1,2.97,2.969v11.088a2.665,2.665,0,0,1-2.97,2.969H1263.4a2.666,2.666,0,0,0-2.97,2.97v46.328a2.666,2.666,0,0,1-2.97,2.97h-11.09a2.71,2.71,0,0,1-2.97-2.97V450.964Z" transform="translate(-687.281 -416)"/>
  <path id="code" class="cls-1" d="M911.625,424.335a3.345,3.345,0,0,0-3.465,2.376l-29.5,79.985c-0.792,2.079.2,3.465,2.375,3.465h4.851a3.345,3.345,0,0,0,3.465-2.376l29.5-79.985c0.792-2.079-.2-3.465-2.376-3.465h-4.85ZM687.281,477.989c0,6.533,1.386,24.055,24.846,24.055,21.086,0,24.352-14.156,24.748-21.68a2.633,2.633,0,0,0-2.177-2.87l-11.187-2.475c-1.979-.5-3.563.792-3.86,2.871-0.594,4.553-2.079,7.127-7.524,7.127-7.325,0-7.82-4.653-7.82-12.275V458.487c0-7.622.5-12.275,7.82-12.275,5.346,0,7.128,2.574,7.623,6.93a3.315,3.315,0,0,0,3.96,3.068l10.988-2.474a2.6,2.6,0,0,0,2.177-2.772c-0.4-7.622-3.662-21.778-24.748-21.778-23.46,0-24.846,17.521-24.846,24.055v24.748ZM793.4,453.241c0-6.534-1.386-24.055-24.847-24.055s-24.847,17.521-24.847,24.055v24.748c0,6.533,1.386,24.055,24.847,24.055S793.4,484.522,793.4,477.989V453.241Zm-17.026,19.5c0,7.622-.5,12.275-7.821,12.275s-7.82-4.653-7.82-12.275V458.487c0-7.622.5-12.275,7.82-12.275s7.821,4.653,7.821,12.275v14.255Zm29.9-41.774c-1.98.1-2.97,1.089-2.97,3.068v63.256a2.709,2.709,0,0,0,2.97,2.97h22.075c18.61,0,24.748-7.623,24.748-23.857V454.726c0-16.235-6.138-23.758-24.748-23.758H806.277ZM823.3,483.235a2.709,2.709,0,0,1-2.97-2.97v-29.3a2.666,2.666,0,0,1,2.97-2.97h5.346c4.751,0,7.127.594,7.127,6.732V476.5c0,5.939-2.376,6.731-7.127,6.731H823.3Zm84.246-52.267a2.624,2.624,0,0,1,2.969,2.969v11.088a2.665,2.665,0,0,1-2.969,2.969H883.593a2.666,2.666,0,0,0-2.97,2.97v3.168a2.709,2.709,0,0,0,2.97,2.969h15.343a2.625,2.625,0,0,1,2.97,2.97v11.087a2.666,2.666,0,0,1-2.97,2.97H883.593a2.666,2.666,0,0,0-2.97,2.97v3.167a2.709,2.709,0,0,0,2.97,2.97h7.456a2.624,2.624,0,0,1,2.969,2.97l-6,11.087a2.624,2.624,0,0,1-2.969,2.97H865.972a2.709,2.709,0,0,1-2.969-2.97V433.937a2.665,2.665,0,0,1,2.969-2.969h41.577Z" transform="translate(-687.281 -416)"/>
  <path id="_" data-name="+" class="cls-2" d="M962.258,459.378a0.935,0.935,0,0,1-.99-0.99V442.253a2.666,2.666,0,0,0-2.97-2.97H947.211a2.709,2.709,0,0,0-2.969,2.97v16.135a0.888,0.888,0,0,1-.99.99H927.116a2.666,2.666,0,0,0-2.97,2.97v11.087a2.709,2.709,0,0,0,2.97,2.97h16.136a0.85,0.85,0,0,1,.99.99V493.53a2.665,2.665,0,0,0,2.969,2.97H958.3a2.625,2.625,0,0,0,2.97-2.97V477.4a0.888,0.888,0,0,1,.99-0.99h16.136a2.665,2.665,0,0,0,2.969-2.97V462.348a2.625,2.625,0,0,0-2.969-2.97H962.258Z" transform="translate(-687.281 -416)"/>
  <path id="_2" data-name="/" class="cls-3" d="M911.869,423.911a3.343,3.343,0,0,0-3.464,2.376l-29.5,79.985c-0.792,2.079.2,3.464,2.376,3.464h4.85a3.344,3.344,0,0,0,3.465-2.375l29.5-79.985c0.792-2.079-.2-3.465-2.376-3.465h-4.851Z" transform="translate(-687.281 -416)"/>
  <path id="_3" data-name="/" class="cls-4" d="M1021.37,423.911a3.357,3.357,0,0,0-3.47,2.376l-29.5,79.985c-0.792,2.079.2,3.464,2.376,3.464h4.851a3.344,3.344,0,0,0,3.464-2.375l29.5-79.985c0.79-2.079-.2-3.465-2.38-3.465h-4.85Z" transform="translate(-687.281 -416)"/>
  <path id="_copy_5" data-name="/ copy 5" class="cls-3" d="M911.869,423.911a3.343,3.343,0,0,0-3.464,2.376l-29.5,79.985c-0.792,2.079.2,3.464,2.376,3.464h4.85a3.344,3.344,0,0,0,3.465-2.375l29.5-79.985c0.792-2.079-.2-3.465-2.376-3.465h-4.851Z" transform="translate(-687.281 -416)"/>
  <path id="_copy_5-2" data-name="/ copy 5" class="cls-4" d="M1021.37,423.911a3.357,3.357,0,0,0-3.47,2.376l-29.5,79.985c-0.792,2.079.2,3.464,2.376,3.464h4.851a3.344,3.344,0,0,0,3.464-2.375l29.5-79.985c0.79-2.079-.2-3.465-2.38-3.465h-4.85Z" transform="translate(-687.281 -416)"/>
  <path id="trusted_cofounders_in_tech" data-name="trusted cofounders in tech" class="cls-2" d="M950.25,535.485a5.833,5.833,0,0,0,.48,2.34,6.5,6.5,0,0,0,1.29,1.95,6.121,6.121,0,0,0,1.9,1.335,5.579,5.579,0,0,0,2.325.5h0.51a0.7,0.7,0,0,0,.45-0.105,0.58,0.58,0,0,0,.12-0.435v-1.2a0.465,0.465,0,0,0-.57-0.57h-0.45a3.708,3.708,0,0,1-2.13-.63,3.617,3.617,0,0,1-1.215-1.425,4.524,4.524,0,0,1-.435-1.815l0.03-7.17h3.69a0.343,0.343,0,0,0,.33-0.12,0.461,0.461,0,0,0,.06-0.18v-1.59a0.345,0.345,0,0,0-.39-0.39h-3.42a0.253,0.253,0,0,1-.27-0.3l-0.03-3.48a0.429,0.429,0,0,0-.54-0.54h-1.26a0.525,0.525,0,0,0-.375.105,0.637,0.637,0,0,0-.105.435q-0.03,2.97-.42,3.42a2.762,2.762,0,0,1-1.02.72,0.8,0.8,0,0,0-.36.345,0.826,0.826,0,0,0-.12.345v0.87a0.378,0.378,0,0,0,.09.255,0.52,0.52,0,0,0,.39.105h1.47Zm10.41,5.58a0.632,0.632,0,0,0,.105.435,0.58,0.58,0,0,0,.4.105h1.29a0.527,0.527,0,0,0,.375-0.105,0.637,0.637,0,0,0,.105-0.435v-8.94a4.016,4.016,0,0,1,.495-2.16,4.5,4.5,0,0,1,1.365-1.35,5.555,5.555,0,0,1,.945-0.375,3.591,3.591,0,0,1,1-.135,3.662,3.662,0,0,1,1.14.15,2.443,2.443,0,0,1,.78.42,0.7,0.7,0,0,0,.435.2,0.389,0.389,0,0,0,.285-0.2c0.139-.18.27-0.35,0.39-0.51q0.15-.21.285-0.42c0.09-.14.154-0.24,0.195-0.3a0.21,0.21,0,0,0-.015-0.3,1.323,1.323,0,0,0-.225-0.21,12.345,12.345,0,0,0-1.515-.825,4.3,4.3,0,0,0-1.755-.315,4.088,4.088,0,0,0-2.1.6,6.106,6.106,0,0,0-1.71,1.47l-0.33-1.53a0.376,0.376,0,0,0-.21-0.315,1.15,1.15,0,0,0-.33-0.045h-0.9a0.439,0.439,0,0,0-.51.39v14.7Zm22.649,0a0.637,0.637,0,0,0,.105.435,0.58,0.58,0,0,0,.4.105h1.29a0.52,0.52,0,0,0,.39-0.105,0.718,0.718,0,0,0,.09-0.435v-14.58a0.645,0.645,0,0,0-.09-0.42,0.581,0.581,0,0,0-.39-0.09h-1.29a0.651,0.651,0,0,0-.4.09,0.574,0.574,0,0,0-.105.42v9.87a3.545,3.545,0,0,1-.315,1.59,2.509,2.509,0,0,1-.855.99,3.782,3.782,0,0,1-1.23.525,6.041,6.041,0,0,1-1.41.165h-0.9a3.569,3.569,0,0,1-1.5-.315,3.637,3.637,0,0,1-1.185-.855,4.1,4.1,0,0,1-.78-1.245,4.45,4.45,0,0,1-.315-1.515v-9.21a0.574,0.574,0,0,0-.1-0.42,0.588,0.588,0,0,0-.375-0.09h-1.29a0.588,0.588,0,0,0-.375.09,0.574,0.574,0,0,0-.105.42v9.24a5.8,5.8,0,0,0,.48,2.355,6.355,6.355,0,0,0,1.29,1.92,5.992,5.992,0,0,0,1.92,1.3,5.907,5.907,0,0,0,2.37.48h0.93a6,6,0,0,0,2.1-.39,3.373,3.373,0,0,0,1.65-1.26v0.93Zm6.705-8.835a5.319,5.319,0,0,0,1.68,1.44,9.624,9.624,0,0,0,2.19.87q1.185,0.315,2.205.66a6.529,6.529,0,0,1,1.695.825,1.635,1.635,0,0,1,.705,1.35,1.66,1.66,0,0,1-.42,1.125,2.652,2.652,0,0,1-.975.63,4.636,4.636,0,0,1-1.26.285q-0.675.06-1.3,0.06-0.78,0-1.5-.03a3.3,3.3,0,0,1-1.44-.42,2.188,2.188,0,0,1-.6-0.4q-0.27-.255-0.51-0.5a0.567,0.567,0,0,0-.375-0.225,0.681,0.681,0,0,0-.345.225l-0.9.9q-0.36.33-.15,0.54a6.222,6.222,0,0,1,.45.51h0.03a4.96,4.96,0,0,0,2.475,1.425,13.71,13.71,0,0,0,2.865.285,12.215,12.215,0,0,0,2.37-.225,6.391,6.391,0,0,0,2.01-.735,3.852,3.852,0,0,0,1.381-1.365,4,4,0,0,0,.51-2.085,3.44,3.44,0,0,0-.68-2.22,5.174,5.174,0,0,0-1.676-1.365,11.21,11.21,0,0,0-2.19-.855q-1.185-.33-2.19-0.7a6.064,6.064,0,0,1-1.68-.915,1.706,1.706,0,0,1-.645-1.47,1.3,1.3,0,0,1,.375-1,2.33,2.33,0,0,1,.93-0.51,5.156,5.156,0,0,1,1.245-.2q0.69-.03,1.32-0.03a8.289,8.289,0,0,1,1.14.075,3.391,3.391,0,0,1,1.11.375,2.188,2.188,0,0,1,.6.405q0.27,0.255.51,0.5a0.567,0.567,0,0,0,.375.225,0.82,0.82,0,0,0,.375-0.225l0.871-.9a0.4,0.4,0,0,0,.15-0.555,2.924,2.924,0,0,0-.45-0.5,5.523,5.523,0,0,0-2.161-1.335,8.212,8.212,0,0,0-2.52-.375,16.442,16.442,0,0,0-2.385.165,6.306,6.306,0,0,0-2,.615,3.577,3.577,0,0,0-1.38,1.23,3.671,3.671,0,0,0-.51,2.04A3.838,3.838,0,0,0,990.014,532.23Zm14.926,3.255a5.833,5.833,0,0,0,.48,2.34,6.5,6.5,0,0,0,1.29,1.95,6.1,6.1,0,0,0,1.9,1.335,5.6,5.6,0,0,0,2.33.5h0.51a0.7,0.7,0,0,0,.45-0.105,0.58,0.58,0,0,0,.12-0.435v-1.2a0.465,0.465,0,0,0-.57-0.57H1011a3.708,3.708,0,0,1-2.13-.63,3.63,3.63,0,0,1-1.22-1.425,4.519,4.519,0,0,1-.43-1.815l0.03-7.17h3.69a0.343,0.343,0,0,0,.33-0.12,0.461,0.461,0,0,0,.06-0.18v-1.59a0.345,0.345,0,0,0-.39-0.39h-3.42a0.253,0.253,0,0,1-.27-0.3l-0.03-3.48a0.633,0.633,0,0,0-.11-0.435,0.622,0.622,0,0,0-.43-0.105h-1.26a0.54,0.54,0,0,0-.38.105,0.642,0.642,0,0,0-.1.435q-0.03,2.97-.42,3.42a2.762,2.762,0,0,1-1.02.72,0.8,0.8,0,0,0-.36.345,0.826,0.826,0,0,0-.12.345v0.87a0.378,0.378,0,0,0,.09.255,0.52,0.52,0,0,0,.39.105h1.47Zm21.51-.93h1.26a1.09,1.09,0,0,0,.67-0.27,0.726,0.726,0,0,0,.35-0.48v-1.89a5.907,5.907,0,0,0-.48-2.37,6.5,6.5,0,0,0-1.29-1.95,5.939,5.939,0,0,0-1.91-1.32,5.7,5.7,0,0,0-2.32-.48h-1.32a5.907,5.907,0,0,0-2.37.48,6.068,6.068,0,0,0-1.94,1.32,6.341,6.341,0,0,0-1.3,1.95,5.907,5.907,0,0,0-.48,2.37v3.78a5.8,5.8,0,0,0,.48,2.355,6.393,6.393,0,0,0,1.3,1.935,6.068,6.068,0,0,0,1.94,1.32,5.907,5.907,0,0,0,2.37.48h2.22a5.967,5.967,0,0,0,2.25-.435,6.291,6.291,0,0,0,1.95-1.245,4.791,4.791,0,0,1,.46-0.51c0.15-.14.12-0.33-0.1-0.57l-0.93-.9a0.556,0.556,0,0,0-.33-0.225,0.571,0.571,0,0,0-.39.225,8.525,8.525,0,0,1-1.31,1.1,2.914,2.914,0,0,1-1.63.4h-2.19a3.768,3.768,0,0,1-2.61-1.155,4.21,4.21,0,0,1-1.17-2.565,1.14,1.14,0,0,1,.25-0.81,1.474,1.474,0,0,1,.65-0.39,3.218,3.218,0,0,1,.85-0.135c0.31-.01.59-0.015,0.83-0.015h6.24Zm0-2.25h-5.58c-0.44,0-.81,0-1.1.015a4.405,4.405,0,0,0-.78.09,4.59,4.59,0,0,0-.66.2c-0.21.08-.45,0.19-0.73,0.33v-1.02a4.655,4.655,0,0,1,.45-1.875,3.916,3.916,0,0,1,1.23-1.485,2.182,2.182,0,0,1,1-.39,10.019,10.019,0,0,1,1.13-.06h1.26a3.871,3.871,0,0,1,1.8.45,3.759,3.759,0,0,1,1.98,3.36v0.39Zm20.49-10.17a0.512,0.512,0,0,0-.11-0.4,0.659,0.659,0,0,0-.37-0.075h-1.29a0.7,0.7,0,0,0-.38.075,0.519,0.519,0,0,0-.1.4v5.97a5.944,5.944,0,0,0-1.85-1.7,4.284,4.284,0,0,0-2.17-.615h-1.77a5.939,5.939,0,0,0-4.29,1.8,6.552,6.552,0,0,0-1.29,1.935,5.8,5.8,0,0,0-.48,2.355v3.87a5.8,5.8,0,0,0,.48,2.355,6.045,6.045,0,0,0,3.21,3.195,5.907,5.907,0,0,0,2.37.48h1.77a5.72,5.72,0,0,0,2.13-.4,7.006,7.006,0,0,0,1.89-1.125,2.05,2.05,0,0,0,.21.93,0.847,0.847,0,0,0,.84.42h1.2v-19.47Zm-2.25,14.22a2.891,2.891,0,0,1-.47,1.725,3.113,3.113,0,0,1-1.11.975,4.356,4.356,0,0,1-1.32.435c-0.45.07-.82,0.115-1.12,0.135h-1.68a4.143,4.143,0,0,1-1.46-.315,3.792,3.792,0,0,1-1.18-.78,4.233,4.233,0,0,1-.84-1.155,3.847,3.847,0,0,1-.39-1.44v-4.26a3.893,3.893,0,0,1,.37-1.425,3.725,3.725,0,0,1,.84-1.125,3.994,3.994,0,0,1,1.19-.75,3.767,3.767,0,0,1,1.44-.27h1.68a3.582,3.582,0,0,1,1.27.27,4.883,4.883,0,0,1,1.32.765,4.239,4.239,0,0,1,1.04,1.245,3.5,3.5,0,0,1,.42,1.74v4.23Zm15.3-.66a5.8,5.8,0,0,0,.48,2.355,6.393,6.393,0,0,0,1.3,1.935,6.068,6.068,0,0,0,1.94,1.32,5.907,5.907,0,0,0,2.37.48h2.22a5.906,5.906,0,0,0,2.26-.435,6,6,0,0,0,1.91-1.245q0.27-.24.48-0.465a0.451,0.451,0,0,0-.09-0.615l-0.93-.84a0.569,0.569,0,0,0-.33-0.24,0.671,0.671,0,0,0-.36.24,8.889,8.889,0,0,1-1.35.885,4.018,4.018,0,0,1-1.62.4h-2.19a3.835,3.835,0,0,1-.93-0.105,4.442,4.442,0,0,1-.9-0.345,4.182,4.182,0,0,1-1.4-1.3,3.612,3.612,0,0,1-.58-1.815h-0.03v-4.23h0.03a3.612,3.612,0,0,1,.58-1.815,4.182,4.182,0,0,1,1.4-1.305,4.442,4.442,0,0,1,.9-0.345,3.835,3.835,0,0,1,.93-0.105h2.19a3.512,3.512,0,0,1,1.57.36,6.022,6.022,0,0,1,1.4.96,0.567,0.567,0,0,0,.36.225,0.7,0.7,0,0,0,.33-0.225l0.93-.87a0.425,0.425,0,0,0,.12-0.57,3.052,3.052,0,0,0-.51-0.51,6,6,0,0,0-1.91-1.245,5.906,5.906,0,0,0-2.26-.435h-2.22a5.907,5.907,0,0,0-2.37.48,6.069,6.069,0,0,0-3.24,3.24,5.833,5.833,0,0,0-.48,2.34v3.84Zm22.11-9.9a5.907,5.907,0,0,0-2.37.48,6.069,6.069,0,0,0-3.24,3.24,5.833,5.833,0,0,0-.48,2.34v3.87a5.833,5.833,0,0,0,.48,2.34,6.069,6.069,0,0,0,3.24,3.24,5.907,5.907,0,0,0,2.37.48h1.65a5.907,5.907,0,0,0,2.37-.48,6.159,6.159,0,0,0,3.24-3.24,5.833,5.833,0,0,0,.48-2.34v-3.87a5.833,5.833,0,0,0-.48-2.34,6.159,6.159,0,0,0-3.24-3.24,5.907,5.907,0,0,0-2.37-.48h-1.65Zm1.62,2.31a3.721,3.721,0,0,1,1.5.3,3.848,3.848,0,0,1,1.2.81,3.9,3.9,0,0,1,.81,1.185,3.616,3.616,0,0,1,.3,1.485v3.81a3.828,3.828,0,0,1-.3,1.515,4.18,4.18,0,0,1-.81,1.245,3.809,3.809,0,0,1-1.2.855,3.569,3.569,0,0,1-1.5.315h-1.62a3.569,3.569,0,0,1-1.5-.315,3.657,3.657,0,0,1-1.19-.855,4.1,4.1,0,0,1-.78-1.245,4.447,4.447,0,0,1-.31-1.515v-3.81a4.183,4.183,0,0,1,.31-1.485,3.814,3.814,0,0,1,.78-1.185,3.734,3.734,0,0,1,2.69-1.11h1.62Zm17.55-6.72H1101a8.415,8.415,0,0,0-2.18.285,6,6,0,0,0-1.9.87,4.522,4.522,0,0,0-1.35,1.47,4.166,4.166,0,0,0-.51,2.115h-1.59a1.677,1.677,0,0,0-.45.045,0.455,0.455,0,0,0-.15.465v1.23a1.071,1.071,0,0,1,.09.27,0.5,0.5,0,0,0,.51.15h1.5v12.78a0.642,0.642,0,0,0,.1.435,0.653,0.653,0,0,0,.44.105h1.26a0.565,0.565,0,0,0,.4-0.105,0.633,0.633,0,0,0,.11-0.435v-12.78h2.76q0.48,0,.48-0.15a0.6,0.6,0,0,1,.06-0.27v-1.23a0.559,0.559,0,0,0-.11-0.465,1.293,1.293,0,0,0-.43-0.045h-2.7a2.026,2.026,0,0,1,1.24-2.055,3.993,3.993,0,0,1,1.22-.33,11.423,11.423,0,0,1,1.29-.075,0.461,0.461,0,0,0,.4-0.12,1.707,1.707,0,0,0,.14-0.27l0.18-1.56a0.22,0.22,0,0,0-.15-0.285,1.605,1.605,0,0,0-.39-0.045h0Zm9.63,4.41a5.907,5.907,0,0,0-2.37.48,6.069,6.069,0,0,0-3.24,3.24,5.833,5.833,0,0,0-.48,2.34v3.87a5.833,5.833,0,0,0,.48,2.34,6.069,6.069,0,0,0,3.24,3.24,5.907,5.907,0,0,0,2.37.48h1.65a5.907,5.907,0,0,0,2.37-.48,6.159,6.159,0,0,0,3.24-3.24,5.833,5.833,0,0,0,.48-2.34v-3.87a5.833,5.833,0,0,0-.48-2.34,6.159,6.159,0,0,0-3.24-3.24,5.907,5.907,0,0,0-2.37-.48h-1.65Zm1.62,2.31a3.721,3.721,0,0,1,1.5.3,3.848,3.848,0,0,1,1.2.81,3.9,3.9,0,0,1,.81,1.185,3.616,3.616,0,0,1,.3,1.485v3.81a3.828,3.828,0,0,1-.3,1.515,4.18,4.18,0,0,1-.81,1.245,3.809,3.809,0,0,1-1.2.855,3.569,3.569,0,0,1-1.5.315h-1.62a3.569,3.569,0,0,1-1.5-.315,3.657,3.657,0,0,1-1.19-.855,4.1,4.1,0,0,1-.78-1.245,4.447,4.447,0,0,1-.31-1.515v-3.81a4.183,4.183,0,0,1,.31-1.485,3.814,3.814,0,0,1,.78-1.185,3.734,3.734,0,0,1,2.69-1.11h1.62Zm20.61,12.96a0.642,0.642,0,0,0,.1.435,0.6,0.6,0,0,0,.41.105h1.29a0.52,0.52,0,0,0,.39-0.105,0.718,0.718,0,0,0,.09-0.435v-14.58a0.645,0.645,0,0,0-.09-0.42,0.581,0.581,0,0,0-.39-0.09h-1.29a0.669,0.669,0,0,0-.41.09,0.578,0.578,0,0,0-.1.42v9.87a3.542,3.542,0,0,1-.32,1.59,2.5,2.5,0,0,1-.85.99,3.782,3.782,0,0,1-1.23.525,6.041,6.041,0,0,1-1.41.165h-0.9a3.569,3.569,0,0,1-1.5-.315,3.657,3.657,0,0,1-1.19-.855,4.1,4.1,0,0,1-.78-1.245,4.447,4.447,0,0,1-.31-1.515v-9.21a0.4,0.4,0,0,0-.48-0.51h-1.29a0.6,0.6,0,0,0-.38.09,0.578,0.578,0,0,0-.1.42v9.24a5.8,5.8,0,0,0,.48,2.355,6.355,6.355,0,0,0,1.29,1.92,5.992,5.992,0,0,0,1.92,1.3,5.907,5.907,0,0,0,2.37.48h0.93a6,6,0,0,0,2.1-.39,3.373,3.373,0,0,0,1.65-1.26v0.93Zm12.6-15.27a4.091,4.091,0,0,0-2.1.6,6.106,6.106,0,0,0-1.71,1.47v-1.5q0-.39-0.51-0.39h-1.26q-0.51,0-.51.39v14.7a0.642,0.642,0,0,0,.1.435,0.6,0.6,0,0,0,.41.105h1.26a0.565,0.565,0,0,0,.4-0.105,0.633,0.633,0,0,0,.11-0.435v-9.15a3.826,3.826,0,0,1,1.83-3.3,6.619,6.619,0,0,1,.97-0.375,3.627,3.627,0,0,1,1.01-.135h1.11a3.721,3.721,0,0,1,1.5.3,3.8,3.8,0,0,1,2.01,2.01,4.109,4.109,0,0,1,.33,1.5v9.15a0.718,0.718,0,0,0,.09.435,0.574,0.574,0,0,0,.42.105h1.26a0.511,0.511,0,0,0,.37-0.105,0.633,0.633,0,0,0,.11-0.435v-9.18a5.8,5.8,0,0,0-.48-2.355,6.423,6.423,0,0,0-1.31-1.935,6.093,6.093,0,0,0-1.92-1.32,5.7,5.7,0,0,0-2.32-.48h-1.17Zm25.38-3.66a0.512,0.512,0,0,0-.11-0.4,0.659,0.659,0,0,0-.37-0.075h-1.29a0.7,0.7,0,0,0-.38.075,0.519,0.519,0,0,0-.1.4v5.97a5.944,5.944,0,0,0-1.85-1.7,4.284,4.284,0,0,0-2.17-.615h-1.77a5.939,5.939,0,0,0-4.29,1.8,6.552,6.552,0,0,0-1.29,1.935,5.8,5.8,0,0,0-.48,2.355v3.87a5.8,5.8,0,0,0,.48,2.355,6.045,6.045,0,0,0,3.21,3.195,5.907,5.907,0,0,0,2.37.48h1.77a5.72,5.72,0,0,0,2.13-.4,7.006,7.006,0,0,0,1.89-1.125,2.05,2.05,0,0,0,.21.93,0.847,0.847,0,0,0,.84.42h1.2v-19.47Zm-2.25,14.22a2.891,2.891,0,0,1-.47,1.725,3.113,3.113,0,0,1-1.11.975,4.356,4.356,0,0,1-1.32.435c-0.45.07-.82,0.115-1.12,0.135h-1.68a4.143,4.143,0,0,1-1.46-.315,3.792,3.792,0,0,1-1.18-.78,4.233,4.233,0,0,1-.84-1.155,3.847,3.847,0,0,1-.39-1.44v-4.26a3.893,3.893,0,0,1,.37-1.425,3.725,3.725,0,0,1,.84-1.125,3.994,3.994,0,0,1,1.19-.75,3.767,3.767,0,0,1,1.44-.27h1.68a3.582,3.582,0,0,1,1.27.27,4.883,4.883,0,0,1,1.32.765,4.239,4.239,0,0,1,1.04,1.245,3.5,3.5,0,0,1,.42,1.74v4.23Zm17.7-1.8h1.26a1.09,1.09,0,0,0,.67-0.27,0.726,0.726,0,0,0,.35-0.48v-1.89a5.907,5.907,0,0,0-.48-2.37,6.5,6.5,0,0,0-1.29-1.95,5.939,5.939,0,0,0-1.91-1.32,5.7,5.7,0,0,0-2.32-.48h-1.32a5.907,5.907,0,0,0-2.37.48,6.068,6.068,0,0,0-1.94,1.32,6.341,6.341,0,0,0-1.3,1.95,5.907,5.907,0,0,0-.48,2.37v3.78a5.8,5.8,0,0,0,.48,2.355,6.393,6.393,0,0,0,1.3,1.935,6.068,6.068,0,0,0,1.94,1.32,5.907,5.907,0,0,0,2.37.48h2.22a5.967,5.967,0,0,0,2.25-.435,6.291,6.291,0,0,0,1.95-1.245,4.791,4.791,0,0,1,.46-0.51c0.15-.14.12-0.33-0.1-0.57l-0.93-.9a0.556,0.556,0,0,0-.33-0.225,0.571,0.571,0,0,0-.39.225,8.525,8.525,0,0,1-1.31,1.1,2.914,2.914,0,0,1-1.63.4h-2.19a3.768,3.768,0,0,1-2.61-1.155,4.21,4.21,0,0,1-1.17-2.565,1.14,1.14,0,0,1,.25-0.81,1.474,1.474,0,0,1,.65-0.39,3.218,3.218,0,0,1,.85-0.135c0.31-.01.59-0.015,0.83-0.015h6.24Zm0-2.25h-5.58c-0.44,0-.81,0-1.1.015a4.405,4.405,0,0,0-.78.09,4.59,4.59,0,0,0-.66.2c-0.21.08-.45,0.19-0.73,0.33v-1.02a4.655,4.655,0,0,1,.45-1.875,3.916,3.916,0,0,1,1.23-1.485,2.182,2.182,0,0,1,1-.39,10.019,10.019,0,0,1,1.13-.06h1.26a3.871,3.871,0,0,1,1.8.45,3.759,3.759,0,0,1,1.98,3.36v0.39Zm6.54,8.76a0.642,0.642,0,0,0,.1.435,0.6,0.6,0,0,0,.41.105h1.29a0.511,0.511,0,0,0,.37-0.105,0.633,0.633,0,0,0,.11-0.435v-8.94a4.018,4.018,0,0,1,.49-2.16,4.528,4.528,0,0,1,1.37-1.35,5.576,5.576,0,0,1,.94-0.375,4.124,4.124,0,0,1,2.15.015,2.433,2.433,0,0,1,.78.42,0.684,0.684,0,0,0,.43.2,0.4,0.4,0,0,0,.29-0.2q0.21-.27.39-0.51c0.1-.14.19-0.28,0.28-0.42s0.16-.24.2-0.3a0.209,0.209,0,0,0-.02-0.3,1.331,1.331,0,0,0-.22-0.21,12.309,12.309,0,0,0-1.52-.825,4.279,4.279,0,0,0-1.75-.315,4.091,4.091,0,0,0-2.1.6,6.106,6.106,0,0,0-1.71,1.47l-0.33-1.53a0.374,0.374,0,0,0-.21-0.315,1.145,1.145,0,0,0-.33-0.045h-0.9a0.439,0.439,0,0,0-.51.39v14.7Zm12.52-8.835a5.319,5.319,0,0,0,1.68,1.44,9.624,9.624,0,0,0,2.19.87c0.79,0.21,1.53.43,2.21,0.66a6.491,6.491,0,0,1,1.69.825,1.64,1.64,0,0,1,.71,1.35,1.66,1.66,0,0,1-.42,1.125,2.672,2.672,0,0,1-.98.63,4.636,4.636,0,0,1-1.26.285c-0.45.04-.88,0.06-1.3,0.06q-0.78,0-1.5-.03a3.3,3.3,0,0,1-1.44-.42,2.188,2.188,0,0,1-.6-0.4q-0.27-.255-0.51-0.5a0.575,0.575,0,0,0-.38-0.225,0.672,0.672,0,0,0-.34.225l-0.9.9q-0.36.33-.15,0.54a6.222,6.222,0,0,1,.45.51h0.03a4.947,4.947,0,0,0,2.47,1.425,13.759,13.759,0,0,0,2.87.285,12.215,12.215,0,0,0,2.37-.225,6.391,6.391,0,0,0,2.01-.735,3.842,3.842,0,0,0,1.38-1.365,4,4,0,0,0,.51-2.085,3.44,3.44,0,0,0-.68-2.22,5.232,5.232,0,0,0-1.68-1.365,11.21,11.21,0,0,0-2.19-.855q-1.185-.33-2.19-0.7a6.064,6.064,0,0,1-1.68-.915,1.7,1.7,0,0,1-.64-1.47,1.3,1.3,0,0,1,.37-1,2.33,2.33,0,0,1,.93-0.51,5.2,5.2,0,0,1,1.25-.2q0.69-.03,1.32-0.03a8.289,8.289,0,0,1,1.14.075,3.391,3.391,0,0,1,1.11.375,2.188,2.188,0,0,1,.6.405q0.27,0.255.51,0.5a0.559,0.559,0,0,0,.37.225,0.829,0.829,0,0,0,.38-0.225l0.87-.9a0.4,0.4,0,0,0,.15-0.555,2.924,2.924,0,0,0-.45-0.5,5.513,5.513,0,0,0-2.16-1.335,8.212,8.212,0,0,0-2.52-.375,16.512,16.512,0,0,0-2.39.165,6.275,6.275,0,0,0-1.99.615,3.577,3.577,0,0,0-1.38,1.23,3.671,3.671,0,0,0-.51,2.04A3.837,3.837,0,0,0,1205.62,532.23Zm26.94-8.745a1.54,1.54,0,0,0,.44-1.11,1.5,1.5,0,0,0-.44-1.08,1.484,1.484,0,0,0-1.12-.45,1.439,1.439,0,0,0-1.05.45,1.473,1.473,0,0,0-.45,1.08,1.508,1.508,0,0,0,.45,1.11,1.439,1.439,0,0,0,1.05.45A1.484,1.484,0,0,0,1232.56,523.485Zm-0.07,2.49a0.734,0.734,0,0,1,.4.075,0.512,0.512,0,0,1,.11.405V541.1a0.451,0.451,0,0,1-.51.51h-1.26a0.52,0.52,0,0,1-.39-0.105,0.651,0.651,0,0,1-.09-0.4v-12.45a0.136,0.136,0,0,0-.05-0.12,0.879,0.879,0,0,0-.1-0.06,0.266,0.266,0,0,0-.12-0.03h-1.2a0.164,0.164,0,0,1-.18-0.09,0.074,0.074,0,0,1,0-.09v-2.1a0.176,0.176,0,0,1,.09-0.15,0.122,0.122,0,0,1,.09-0.03h3.21Zm10.8-.18a4.091,4.091,0,0,0-2.1.6,6.106,6.106,0,0,0-1.71,1.47v-1.5q0-.39-0.51-0.39h-1.26q-0.51,0-.51.39v14.7a0.642,0.642,0,0,0,.1.435,0.6,0.6,0,0,0,.41.105h1.26a0.565,0.565,0,0,0,.4-0.105,0.633,0.633,0,0,0,.11-0.435v-9.15a3.826,3.826,0,0,1,1.83-3.3,6.619,6.619,0,0,1,.97-0.375,3.627,3.627,0,0,1,1.01-.135h1.11a3.721,3.721,0,0,1,1.5.3,3.8,3.8,0,0,1,2.01,2.01,4.109,4.109,0,0,1,.33,1.5v9.15a0.718,0.718,0,0,0,.09.435,0.574,0.574,0,0,0,.42.105h1.26a0.511,0.511,0,0,0,.37-0.105,0.633,0.633,0,0,0,.11-0.435v-9.18a5.8,5.8,0,0,0-.48-2.355,6.423,6.423,0,0,0-1.31-1.935,6.093,6.093,0,0,0-1.92-1.32,5.7,5.7,0,0,0-2.32-.48h-1.17Zm22.32,9.69a5.833,5.833,0,0,0,.48,2.34,6.313,6.313,0,0,0,1.29,1.95,6.1,6.1,0,0,0,1.9,1.335,5.569,5.569,0,0,0,2.33.5h0.51a0.7,0.7,0,0,0,.45-0.105,0.626,0.626,0,0,0,.12-0.435v-1.2a0.693,0.693,0,0,0-.12-0.45,0.639,0.639,0,0,0-.45-0.12h-0.45a3.686,3.686,0,0,1-2.13-.63,3.63,3.63,0,0,1-1.22-1.425,4.359,4.359,0,0,1-.43-1.815l0.03-7.17h3.69a0.354,0.354,0,0,0,.33-0.12,0.461,0.461,0,0,0,.06-0.18v-1.59a0.349,0.349,0,0,0-.39-0.39h-3.42a0.253,0.253,0,0,1-.27-0.3l-0.03-3.48a0.633,0.633,0,0,0-.11-0.435,0.622,0.622,0,0,0-.43-0.105h-1.26a0.54,0.54,0,0,0-.38.105,0.642,0.642,0,0,0-.1.435c-0.02,1.98-.17,3.12-0.42,3.42a2.762,2.762,0,0,1-1.02.72,0.714,0.714,0,0,0-.36.345,0.826,0.826,0,0,0-.12.345v0.87a0.378,0.378,0,0,0,.09.255,0.52,0.52,0,0,0,.39.105h1.47Zm21.5-.93h1.26a1.115,1.115,0,0,0,.68-0.27,0.7,0.7,0,0,0,.34-0.48v-1.89a5.907,5.907,0,0,0-.48-2.37,6.5,6.5,0,0,0-1.29-1.95,5.9,5.9,0,0,0-1.9-1.32,5.751,5.751,0,0,0-2.33-.48h-1.32a5.907,5.907,0,0,0-2.37.48,6.025,6.025,0,0,0-1.93,1.32,6.369,6.369,0,0,0-1.31,1.95,5.907,5.907,0,0,0-.48,2.37v3.78a5.8,5.8,0,0,0,.48,2.355,6.423,6.423,0,0,0,1.31,1.935,6.025,6.025,0,0,0,1.93,1.32,5.907,5.907,0,0,0,2.37.48h2.22a5.967,5.967,0,0,0,2.25-.435,6.291,6.291,0,0,0,1.95-1.245,4.805,4.805,0,0,1,.47-0.51c0.15-.14.11-0.33-0.11-0.57l-0.93-.9a0.556,0.556,0,0,0-.33-0.225,0.571,0.571,0,0,0-.39.225,8.493,8.493,0,0,1-1.3,1.1,2.95,2.95,0,0,1-1.64.4h-2.19a3.768,3.768,0,0,1-2.61-1.155,4.21,4.21,0,0,1-1.17-2.565,1.142,1.142,0,0,1,.26-0.81,1.44,1.44,0,0,1,.64-0.39,3.3,3.3,0,0,1,.86-0.135c0.31-.01.58-0.015,0.82-0.015h6.24Zm0-2.25h-5.58c-0.44,0-.8,0-1.09.015a4.405,4.405,0,0,0-.78.09,4.59,4.59,0,0,0-.66.2c-0.21.08-.46,0.19-0.74,0.33v-1.02a4.655,4.655,0,0,1,.45-1.875,3.916,3.916,0,0,1,1.23-1.485,2.218,2.218,0,0,1,1.01-.39,9.837,9.837,0,0,1,1.12-.06h1.26a3.871,3.871,0,0,1,1.8.45,3.759,3.759,0,0,1,1.98,3.36v0.39Zm5.22,3.39a5.8,5.8,0,0,0,.48,2.355,6.423,6.423,0,0,0,1.31,1.935,6.025,6.025,0,0,0,1.93,1.32,5.907,5.907,0,0,0,2.37.48h2.22a5.9,5.9,0,0,0,4.17-1.68q0.27-.24.48-0.465a0.451,0.451,0,0,0-.09-0.615l-0.93-.84a0.569,0.569,0,0,0-.33-0.24,0.671,0.671,0,0,0-.36.24,8.889,8.889,0,0,1-1.35.885,4.018,4.018,0,0,1-1.62.4h-2.19a3.835,3.835,0,0,1-.93-0.105,4.442,4.442,0,0,1-.9-0.345,4.149,4.149,0,0,1-1.39-1.3,3.621,3.621,0,0,1-.59-1.815h-0.03v-4.23h0.03a3.621,3.621,0,0,1,.59-1.815,4.149,4.149,0,0,1,1.39-1.305,4.442,4.442,0,0,1,.9-0.345,3.835,3.835,0,0,1,.93-0.105h2.19a3.554,3.554,0,0,1,1.58.36,5.97,5.97,0,0,1,1.39.96,0.567,0.567,0,0,0,.36.225,0.7,0.7,0,0,0,.33-0.225l0.93-.87a0.425,0.425,0,0,0,.12-0.57,3.052,3.052,0,0,0-.51-0.51,5.9,5.9,0,0,0-4.17-1.68h-2.22a5.907,5.907,0,0,0-2.37.48,6.159,6.159,0,0,0-3.24,3.24,5.833,5.833,0,0,0-.48,2.34v3.84Zm16.05,5.37a0.633,0.633,0,0,0,.11.435,0.511,0.511,0,0,0,.37.105h1.29a0.52,0.52,0,0,0,.39-0.105,0.718,0.718,0,0,0,.09-0.435v-9.12a2.832,2.832,0,0,1,.42-1.5,4.786,4.786,0,0,1,1.04-1.2,5.333,5.333,0,0,1,1.32-.81,3.828,3.828,0,0,1,1.3-.33h0.78a3.791,3.791,0,0,1,1.86.48,4.244,4.244,0,0,1,1.4,1.29,3.573,3.573,0,0,1,.58,1.83v9.36a0.633,0.633,0,0,0,.11.435,0.565,0.565,0,0,0,.4.105h1.23a0.653,0.653,0,0,0,.44-0.105,0.642,0.642,0,0,0,.1-0.435v-9.18a5.833,5.833,0,0,0-.48-2.34,6.3,6.3,0,0,0-1.29-1.935,6.2,6.2,0,0,0-1.92-1.32,5.753,5.753,0,0,0-2.37-.5h-0.87a4.382,4.382,0,0,0-2.19.615,5.868,5.868,0,0,0-1.86,1.7v-6a0.516,0.516,0,0,0-.09-0.375,0.671,0.671,0,0,0-.39-0.075h-1.29a0.659,0.659,0,0,0-.37.075,0.462,0.462,0,0,0-.11.375v18.96Z" transform="translate(-687.281 -416)"/>
</svg>
